<?xml version="1.0" encoding="UTF-8"?>
<svg id="Layer_1" xmlns="http://www.w3.org/2000/svg" version="1.1" viewBox="0 0 1000 206.24">
  <!-- Generator: Adobe Illustrator 30.1.0, SVG Export Plug-In . SVG Version: 2.1.1 Build 136)  -->
  <defs>
    <style>
      .st0 {
        fill: #fff;
      }
    </style>
  </defs>
  <path class="st0" d="M551.39,130.21c2.84-18.26,7.37-35.63,8.82-53.64.28-3.49,1.61-5.15,4.82-5.04,2.16.07,4.33-.44,6.5-.54,6.84-.3,7.47.44,6.95,8.57,12.92-8.72,25.83-17.54,37.94,1.11,2.65-.19,4.38-2.52,6.48-4,6.79-4.8,13.96-7.88,22.13-6.28,8.04,1.57,11.32,5.87,11.39,15.06.08,11.4-3.32,22.18-4.82,33.29-.19,1.41-.57,2.8-.69,4.22-.71,8.01.05,8.85,7.1,8.23.84-.07,1.71.21,2.68.35-3.62,7.5-18.7,12.04-24.61,7.7-2.99-2.2-3.53-5.55-3.33-9.17.57-10.28,3.44-20.08,4.9-30.18.55-3.83,1.47-7.65,1.58-11.5.18-6.14-3.05-9.03-8.36-8.09-8.99,1.6-14.29,7.44-16.14,17.67-2.1,11.64-4.5,23.22-6.3,34.91-.85,5.54-2.95,7.48-7.93,7.32-10.9-.34-10.81-.06-8.55-12.26,2.26-12.23,4.38-24.49,6.39-36.77,1.41-8.61-2.65-12.94-9.9-10.17-6.88,2.63-12.54,6.77-13.88,16.14-1.74,12.13-4.43,24.07-6.21,36.19-.76,5.17-2.75,7.23-7.18,6.7-.9-.11-1.81-.03-2.72-.03-5.61-.02-7.95-3.29-7.04-9.8h-.02Z"/>
  <path class="st0" d="M349.58,80.06c-10.83.93-17.27,6.94-19.29,18-2.13,11.62-4.26,23.25-5.9,34.96-.76,5.38-2.78,7.21-7.5,7.09-12.96-.32-11.14.6-8.86-12.75,2.1-12.26,4.31-24.49,6.39-36.76,1.24-7.31-2.48-11.64-8.87-10.5-8.37,1.49-14.55,8.62-16.12,18.09-2.04,12.27-4.43,24.47-6.46,36.74-.62,3.78-2.29,5.02-5.52,5.19-13.09.69-12.86.83-10.31-13.43,3.04-17.05,6.7-33.97,8.64-51.25.27-2.39,1.11-3.83,3.25-4.11,4.84-.62,9.67-.86,14.24.31,1.31,3.18-.5,5.63-.36,9,6.73-4.66,12.93-9.5,20.69-10.45,9.24-1.13,13.8,1.48,18.44,11.77,2.37-1.79,4.66-3.63,7.04-5.32,6.27-4.45,12.91-7.37,20.53-6.36,9.51,1.26,13.87,6.52,12.73,17.23-1.12,10.55-3.28,20.95-4.99,31.42-.2,1.21-.48,2.4-.62,3.61-1.02,8.59-.1,9.65,7.48,8.75.9-.11,1.8-.23,2.47.7-3.66,6.95-18.8,11.46-24.66,7.22-4.58-3.31-3.77-8.55-3.05-13.35,1.33-8.88,3.08-17.67,4.62-26.51.56-3.21,1.19-6.44,1.44-9.69.33-4.41-.57-8.24-5.43-9.6h-.02Z"/>
  <path class="st0" d="M452.43,50.7c-2.37,3.69-4.13,3.09-5.9-.22-6.85-12.84-27.72-15.59-37.21-4.97-7.63,8.53-6.17,19.78,3.54,24.99,7.35,3.95,15.07,7.01,22.46,10.87,18.29,9.54,16.04,27.72,9.04,40.62-7.19,13.25-18.82,18-31.84,19.06-9.32.76-18.38-1.23-27.27-4.37-3.15-1.12-4.44-2.96-3.39-6.83,1.11-4.1,1.78-8.35,2.63-12.54.43-2.1,1.07-3.98,3.34-4.17,2.42-.2,2.92,1.88,3.55,3.84,5.25,16.41,21.86,22.34,34.49,12.24,5.81-4.65,8.28-11.17,7.69-19.19-.5-6.9-5.12-9.5-9.82-11.84-5.63-2.81-11.38-5.31-17.05-8.03-9.64-4.62-16.77-11.51-16.73-24.56.04-13.64,6.37-23.05,16.76-28.5,14.69-7.7,29.93-6.55,45.12-1.39,2.7.92,3.33,2.81,2.72,5.61-.65,2.98-1.34,5.96-2.14,9.39h.01Z"/>
  <path class="st0" d="M154.42,57.83c.6-3.74,1.14-6.96,1.55-10.2.43-3.42.59-6.73-3.61-7.37-1.69-.26-2.55-1.42-2.13-3.48.35-1.76,1.1-3.04,2.84-3.15,1.27-.08,2.54-.13,3.8-.13,19.58-.01,39.16-.07,58.74.05,2.35.01,6.08-1.56,6,3.62-.07,4.55-2.89,4.73-6.12,4.66-11.96-.23-23.93-.06-35.89-.37-3.81-.1-5.49,1.25-6.09,5.61-1.18,8.49-2.69,16.93-4.4,25.3-.86,4.22.28,5.66,3.92,5.62,8.52-.11,17.04-.09,25.56-.02,2.23.02,5.03-.63,4.89,3.71-.11,3.63-1.81,5.15-4.83,5.16-8.7.04-17.41.31-26.1,0-4.52-.16-6.45,1.65-7.2,6.68-2.03,13.72-4.46,27.35-6.69,41.03-.56,3.42-1.84,5.31-5.31,5.55-13.25.88-13.2.98-10.67-13.64,3.93-22.7,7.75-45.42,11.74-68.64h0Z"/>
  <path class="st0" d="M504.3,80.29c9.85-9.21,20.79-12.22,32.83-9.41,6.07,1.42,11.4,4.36,12.74,12.36,1.25,7.41-1.88,15.79-7.84,20.24-8.79,6.55-18.9,7.97-29.01,9.23-6.14.77-6.87,1.92-4.83,8.37,2.81,8.89,11.47,13.2,20.71,10.3,3.9-1.22,7.36-3.42,10.6-6.1,1.28-1.05,2.58-1.57,3.86.03.88,1.1.8,2.18-.03,3.28-10.88,14.33-35.73,17.13-46.38,5.07-7.93-8.99-7.79-19.76-5.17-30.94,2.05-8.74,6.22-16.11,12.51-22.42M509.42,97.84c.24,2.88-3.73,7.06,1.58,8.36,9.07,2.21,21.18-6.38,24.03-16.48,1.2-4.27.97-8.15-1.93-11.29-2.8-3.04-6.14-2.61-9.62-1.37-8.65,3.09-10.75,11.87-14.05,20.78h-.01Z"/>
  <path class="st0" d="M255.05,131.08c-10.4,8.9-21.59,12.25-34.05,8.86-10.24-2.78-16.03-10.59-17.03-22.56-2.29-27.36,20.93-51.79,44.79-47.01,6.48,1.3,12.43,3.87,14.29,12.09,1.93,8.57-1.16,16.32-8.32,21.55-6.71,4.9-14.28,6.79-22.07,7.84-1.44.19-2.88.33-4.32.54-8.09,1.22-9.41,4.77-4.74,12.72,4.11,6.98,14.17,9.15,22.71,4.75,1.96-1.01,3.72-2.51,5.6-3.74,1.57-1.03,2.94-3.82,5.07-1.26,2.39,2.87-.29,4.24-1.93,6.21M231.75,80.41c-5.53,5.63-7.71,13.24-9.57,21-.56,2.32-.41,4.85,2.55,4.78,8.03-.2,15.57-2.18,20.96-9.58,4.06-5.56,4.65-14,1.63-17.6-3.25-3.89-8.59-3.58-15.57,1.4Z"/>
  <path class="st0" d="M484.52,136.96c-6.16,2.72-12.04,4.93-18.35,4.01-7.8-1.15-10.96-5.35-9.93-14.23,1.39-11.97,3.29-23.86,5.08-35.77.7-4.69,1.73-9.31-4.78-9.12-1.39.04-2.47-.89-2.35-2.71.16-2.37.87-5.06,3.03-5.29,9.83-1.05,10.87-9.83,12.7-17.91.85-3.74,1.96-7.06,5.53-8.43,3.72-1.43,5.44.22,4.78,4.68-.66,4.44-1.28,8.9-2.13,13.29-.73,3.81.58,5.36,3.86,5.44,4.16.09,8.32.29,12.47.53.46.03.9.6,1.31.89-1.11,8.12-2.31,9.43-8.69,9.59h-1.09c-10.31.11-10.25.12-11.48,11.57-1.07,9.96-2.59,19.86-3.37,29.85-.67,8.55,1.68,10.59,9.3,9.41,5.09-.79,5.34-.57,4.11,4.19h0Z"/>
  <path class="st0" d="M710.03,171.67c33.96,20.6,73.9,17.48,102.88-9.05,38.96-35.66,29.52-87.99-9.18-114.88-25.5-17.72-55.48-17.82-78.25-.19-21.37,16.54-33.24,38.28-30.73,66,1.79,19.8,10.99,36.17,25.87,49.33.97.85,1.93,1.71,2.84,2.62.14.14-.02.57-.1,1.56-4.71-2.32-8.77-5.13-12.52-8.36-40.29-34.67-36-95.1,8.81-124.36,29.82-19.46,70.74-15.95,97.31,8.22,7.82,7.11,14.77,14.88,20.24,23.9-11.44-28.66-33.24-44.85-62.89-51.55,17.21-2.11,50.35,11.28,67.18,35.86,23.32,34.06,22.84,78.5-1.45,110.42-24.05,31.6-68.67,45.18-105.96,32.25-27.56-9.55-56.68-39.97-56.06-59.16,7.1,15.41,17.5,27.96,32,37.4h.01Z"/>
  <path class="st0" d="M810.22,100.12c3.17,26.02-15.25,48.09-40.78,49.41-24.19,1.25-45.14-18.87-45.09-43.29.05-22.76,17.81-41.69,41.61-42.67,22.89-.94,41.15,15.31,44.25,36.55M747.88,91.06c1.58-3.07.75-5.42-2.38-6.66-2.14-.85-4.28-.3-5.51,1.81-1.16,1.98-1.06,4.15.65,5.81,2.3,2.23,4.65,1.8,7.23-.96h.01Z"/>
</svg>